<svg xmlns="http://www.w3.org/2000/svg" viewBox="0 0 101.71 71.98"><defs><style>.cls-1{fill:#0068a2;}.cls-2{fill:#e20b1a;}.cls-3{fill:#e20d1a;}.cls-4{fill:#fdfdfc;}.cls-5{fill:#fcfcfc;}.cls-6{fill:#f9f8f8;}.cls-7{fill:#e00d1b;}.cls-8{fill:#fdfdfd;}.cls-9{fill:#faf9f8;}</style></defs><g id="Layer_2" data-name="Layer 2"><g id="Layer_1-2" data-name="Layer 1"><path class="cls-1" d="M101.71,41a28.5,28.5,0,0,1-1.27,3.57,7.5,7.5,0,0,1-5.94,4.06,45.46,45.46,0,0,1-7.37.46c-4.39,0-8.78,0-13.22,0V14.81c.21,0,.44,0,.66,0h2.72c4.58.05,9.16,0,13.73.19a11.55,11.55,0,0,1,6,1.52,7.06,7.06,0,0,1,3.09,4.94,9.57,9.57,0,0,1-.57,5.75,7.56,7.56,0,0,1-3.35,3.47c-.09.05-.15.13-.08.06,1.15.8,2.37,1.55,3.47,2.44,1.32,1.08,1.67,2.66,2,4.25a2.08,2.08,0,0,0,.15.39ZM82.6,42.6c2.17,0,4.26.06,6.34,0a3.23,3.23,0,0,0,2.72-1.52c1.27-2.08.69-5.45-2.55-5.6-1.75-.08-3.5-.11-5.24-.16H82.6ZM82.6,28l.24,0c1.52,0,3,0,4.58,0,2.07-.05,3-.79,3.5-2.65a3.26,3.26,0,0,0-2.06-3.82,12.42,12.42,0,0,0-2.74-.2c-1.17,0-2.35,0-3.52,0Z"/><path class="cls-1" d="M101.71,60.94H36.93a5.86,5.86,0,0,1-9,3.5A5.27,5.27,0,0,1,25.44,60a5.59,5.59,0,0,1,2.95-5.45A5.66,5.66,0,0,1,34,54.48a5.49,5.49,0,0,1,2.86,3.59.78.78,0,0,0,.47.37,2.14,2.14,0,0,0,.62,0h63.78ZM34.49,59.59a3.27,3.27,0,1,0-6.54.06,3.27,3.27,0,1,0,6.54-.06Z"/><path class="cls-2" d="M101.71,71.82a1.42,1.42,0,0,1-.42.15H91.17V64.83h10.54Zm-3.45-2.56v-.07c.22-.7.35-1.37-.4-1.87a5.34,5.34,0,0,1-.64-.62.86.86,0,0,0,.07-.1s0,0-.05,0a2.34,2.34,0,0,0-2.31.3l-.22.22c-.33.68-.82,1.34-.16,2.09a2.63,2.63,0,0,0,.21.41c.69,1,2.45,1,2.91.06l.16-.12Z"/><path class="cls-1" d="M49.43,0A9.16,9.16,0,0,1,51,1.2,2.72,2.72,0,0,1,50.46,5a2.68,2.68,0,0,1-3.73-.16A2.8,2.8,0,0,1,47.31.34L47.87,0Z"/><path class="cls-1" d="M34.31,13.35,48.91,33l14.7-19.81c2.11,12,4.2,23.83,6.31,35.76H61L57.15,32.81,48.89,46.88,40.22,33.26,36.77,48.94h-9.1L34.12,13.4Z"/><path class="cls-1" d="M8.84,35.57v7.48H23.56v6H.16V15H23.71v6H8.85v7.58H21.52v7Z"/><path class="cls-1" d="M38.71,3.46h4.12a4.13,4.13,0,0,0,1.72,3A6.64,6.64,0,0,0,49,7.9c3.18-.29,5.27-2,5.49-4.44h4.31a7.29,7.29,0,0,1-1.49,4,7.52,7.52,0,0,1-3.12,2.34,2.11,2.11,0,0,0-1.28,1.47Q50.93,19.08,49,26.84a.6.6,0,0,1-.22.39,10.48,10.48,0,0,1-.38-1.07c-.89-3.77-1.76-7.55-2.64-11.33-.27-1.15-.59-2.3-.77-3.46a1.26,1.26,0,0,0-.87-1.06,9.5,9.5,0,0,1-3.17-1.9A6.09,6.09,0,0,1,38.71,3.46Z"/><path class="cls-1" d="M18.26,58.48a6.64,6.64,0,0,1,6.43-5.73c0,.86,0,1.71,0,2.55,0,.18-.31.44-.52.49a3.83,3.83,0,0,0-1.9,6.47,5.94,5.94,0,0,0,1.92,1c.33.15.56.24.54.68,0,.74,0,1.49,0,2.28a5.8,5.8,0,0,1-3.85-1.31,6.09,6.09,0,0,1-2.37-3.46c-.12-.5-.44-.52-.85-.52H0V58.48Z"/><path class="cls-1" d="M79.41,71.71c-1.79.67-2.35-.8-3.21-1.74-.4-.44-.76-.91-1.24-1.49v3.29H73V65a2.09,2.09,0,0,1,2.52,1,19.18,19.18,0,0,0,1.94,2.28V65h2Z"/><path class="cls-1" d="M66.58,71.78V65h5.2V66.5H68.62v1.11h2.86v1.57H68.6v.9h3.34v1.7Z"/><path class="cls-1" d="M83.3,71.14,84,69.81c.92.17,1.75.34,2.59.44.21,0,.45-.22.68-.34-.19-.18-.34-.45-.57-.53-.56-.21-1.16-.32-1.73-.51a1.71,1.71,0,0,1-1.44-1.78A2,2,0,0,1,85,65a5.19,5.19,0,0,1,4.1.4L88.42,67c-1.63-.72-2.34-.71-3,.13l1.5.48a12.5,12.5,0,0,1,1.36.4,1.68,1.68,0,0,1,1,1.9,1.84,1.84,0,0,1-1.19,1.7A5.29,5.29,0,0,1,83.3,71.14Z"/><path class="cls-1" d="M82.68,71.8H80.59V65h2.09Z"/><path class="cls-3" d="M94.71,67.07l.22-.22a4.15,4.15,0,0,1,.58-.1c.51,0,1,0,1.52,0a.53.53,0,0,1,0,.13,4.78,4.78,0,0,0-.54,0,1.76,1.76,0,0,0-1.31,1.37,1.69,1.69,0,0,0,1.39,1.4l.54-.13h0l.23,0h.16l.15.05s0,.08,0,.12c-.46.93-2.22.9-2.91-.06a2.63,2.63,0,0,1-.21-.41,2.69,2.69,0,0,1,.27-2Z"/><path class="cls-4" d="M97.82,69.18H98v.15l-.15.18-.16.12s0-.08,0-.12l-.15-.18v-.16h.32Z"/><path class="cls-5" d="M97.83,69.51l.15-.18.28-.07Z"/><path class="cls-6" d="M98.26,69.26l-.28.07v-.15h.28Z"/><path class="cls-7" d="M96.57,69.16c-.09-.12-.28-.24-.27-.35a6.43,6.43,0,0,1,.21-1l.71-.37.82.79-.39.75-.15.15h0l-.26,0,0,0-.15.32h0l-.1-.31v0Z"/><path class="cls-8" d="M97,69.18l.1.31-.54.13v-.46l.46,0Z"/><path class="cls-9" d="M97.24,69.2l.26,0v.29h-.16l-.06-.26,0,0Z"/><path class="cls-8" d="M97.29,69.2l.06.26-.23,0,.15-.32Z"/><path class="cls-5" d="M97.51,69.46v-.13l.15.18Z"/><path class="cls-6" d="M97.5,69.17l.15-.15.17.16Z"/><path class="cls-3" d="M97,69.18v0Z"/><polygon class="cls-3" points="97.29 69.2 97.27 69.17 97.24 69.19 97.27 69.17 97.29 69.2"/></g></g></svg>